<!DOCTYPE svg PUBLIC "-//W3C//DTD SVG 1.1//EN" "http://www.w3.org/Graphics/SVG/1.1/DTD/svg11.dtd">

<svg
    version="1.1"
    xmlns="http://www.w3.org/2000/svg"
    xmlns:xlink="http://www.w3.org/1999/svg"
    xml:space="preserve"
    class="sprite"
>
    <symbol id="arrow" viewBox="235 -613 490 290">
        <path fill="#000" d="M480-200 240-440l56-56 184 183 184-183 56 56-240 240Zm0-240L240-680l56-56 184 183 184-183 56 56-240 240Z"/>
    </symbol>
    <symbol id="fav_icon" width="16" height="16" viewBox="0 0 576 512">
        <path fill="#fff" d="M316.9 18C311.6 7 300.4 0 288.1 0s-23.4 7-28.8 18L195 150.3 51.4 171.5c-12 1.8-22 10.2-25.7 21.7s-.7 24.2 7.9 32.7L137.8 329 113.2 474.7c-2 12 3 24.2 12.9 31.3s23 8 33.8 2.3l128.3-68.5 128.3 68.5c10.8 5.7 23.9 4.9 33.8-2.3s14.9-19.3 12.9-31.3L438.5 329 542.7 225.9c8.6-8.5 11.7-21.2 7.9-32.7s-13.7-19.9-25.7-21.7L381.2 150.3 316.9 18z"/>
    </symbol>
    <symbol id="bicycle_icon" width="24" height="24" viewBox="0 -960 960 960">
        <path d="M620-740q-33 0-56.5-23.5T540-820q0-33 23.5-56.5T620-900q33 0 56.5 23.5T700-820q0 33-23.5 56.5T620-740ZM432-540l88 92v248h-80v-200L312-512q-14-12-19-25t-5-31q0-18 5.5-30.5T312-624l112-112q13-13 27.5-18.5T484-760q18 0 32.5 5.5T544-736l76 76q27 27 63 43.5t81 16.5v80q-63 0-114-22.5T560-604l-32-32-96 96Zm-232 60q85 0 142.5 57.5T400-280q0 85-57.5 142.5T200-80q-85 0-142.5-57.5T0-280q0-85 57.5-142.5T200-480Zm0 340q57 0 98.5-41.5T340-280q0-57-41.5-98.5T200-420q-57 0-98.5 41.5T60-280q0 57 41.5 98.5T200-140Zm560-340q85 0 142.5 57.5T960-280q0 85-57.5 142.5T760-80q-85 0-142.5-57.5T560-280q0-85 57.5-142.5T760-480Zm0 340q57 0 98.5-41.5T900-280q0-57-41.5-98.5T760-420q-57 0-98.5 41.5T620-280q0 57 41.5 98.5T760-140Z"/>
    </symbol>
    <symbol id="excursion_icon" width="60" height="60" viewBox="0 0 60 60">
        <path fill-rule="evenodd" clip-rule="evenodd" d="M22.1515 3.63692C24.6415 2.89663 27.2767 2.5 30 2.5C32.7233 2.5 35.3585 2.89663 37.8485 3.63692L36.4236 8.42959C34.3911 7.82533 32.2358 7.5 30 7.5C27.7642 7.5 25.6089 7.82533 23.5764 8.4296L22.1515 3.63692ZM5.81109 16.9076C8.35384 12.2188 12.2188 8.35383 16.9076 5.81109L19.2912 10.2064C15.4536 12.2875 12.2875 15.4536 10.2064 19.2912L5.81109 16.9076ZM43.0924 5.81109C47.7812 8.35384 51.6462 12.2188 54.1889 16.9076L49.7936 19.2912C47.7125 15.4536 44.5464 12.2875 40.7088 10.2064L43.0924 5.81109ZM56.3631 22.1515C57.1034 24.6415 57.5 27.2767 57.5 30C57.5 32.7233 57.1034 35.3585 56.3631 37.8485L51.5704 36.4236C52.1747 34.3911 52.5 32.2358 52.5 30C52.5 27.7642 52.1747 25.6089 51.5704 23.5764L56.3631 22.1515ZM2.5 30C2.5 27.2767 2.89663 24.6415 3.63692 22.1515L8.42959 23.5764C7.82533 25.6089 7.5 27.7642 7.5 30C7.5 32.2358 7.82533 34.3911 8.4296 36.4236L3.63692 37.8485C2.89663 35.3585 2.5 32.7233 2.5 30ZM16.9076 54.1889C12.2188 51.6462 8.35383 47.7812 5.81109 43.0924L10.2064 40.7088C12.2875 44.5464 15.4536 47.7125 19.2912 49.7936L16.9076 54.1889ZM54.1889 43.0924C51.6462 47.7812 47.7812 51.6462 43.0924 54.1889L40.7088 49.7936C44.5464 47.7125 47.7125 44.5464 49.7936 40.7088L54.1889 43.0924ZM30 57.5C27.2767 57.5 24.6415 57.1034 22.1515 56.3631L23.5764 51.5704C25.6089 52.1747 27.7642 52.5 30 52.5C32.2358 52.5 34.3911 52.1747 36.4236 51.5704L37.8485 56.3631C35.3585 57.1034 32.7233 57.5 30 57.5Z"/>
        <path d="M30 38C34.4183 38 38 34.4183 38 30C38 25.5817 34.4183 22 30 22C25.5817 22 22 25.5817 22 30C22 34.4183 25.5817 38 30 38Z"/>
    </symbol>
    <symbol id="special_order_icon" height="1em" viewBox="0 0 512 512">
        <path d="M160 368C186.5 368 208 389.5 208 416V432L280.5 377.6C288.8 371.4 298.9 368 309.3 368H448C456.8 368 464 360.8 464 352V64C464 55.2 456.8 48 448 48H64C55.2 48 48 55.2 48 64V352C48 360.8 55.2 368 64 368H160ZM208 492L207.8 492.2L202.7 496L185.6 508.8C180.8 512.4 174.3 513 168.8 510.3C163.3 507.6 160 502.1 160 496V474.7V468.3V468V464V416H112H64C28.7 416 0 387.3 0 352V64C0 28.7 28.7 0 64 0H448C483.3 0 512 28.7 512 64V352C512 387.3 483.3 416 448 416H309.3L208 492Z"/>
        <path d="M256.5 210.538C269.289 210.538 281.553 205.453 290.596 196.4C299.638 187.348 304.719 175.071 304.719 162.27C304.719 149.468 299.638 137.19 290.596 128.138C281.553 119.085 269.289 114 256.5 114C243.711 114 231.447 119.085 222.404 128.138C213.362 137.19 208.282 149.468 208.281 162.27C208.281 175.071 213.362 187.348 222.404 196.4C231.447 205.453 243.711 210.538 256.5 210.538ZM240.812 240.245C210.977 240.245 151 262.842 151 292.709C151 298.408 150.621 313 156.28 313H356.72C362.413 313 362 298.374 362 292.709C362 262.842 302.023 240.245 272.188 240.245H240.812Z"/>
    </symbol>
    <symbol id="arrow_all_plans" stroke="#09f" viewBox="0 0 12 12">
        <circle r="5" cx="6" cy="6" fill="none" stroke-width="1" />
        <line x1="5" y1="4" x2="8" y2="6" stroke-width="1" />
        <line x1="5" y1="8" x2="8" y2="6" stroke-width="1" />
    </symbol>
    <symbol id="quote_icon" width="42" height="37" viewBox="0 0 42 37">
        <path fill-rule="evenodd" clip-rule="evenodd" d="M0.999997 2C0.999997 0.89543 1.89543 0 3 0H16C17.1046 0 18 0.895431 18 2V18C18 23.7718 15.1575 28.451 12.0484 31.7802C9.61816 34.3824 6.83057 35.7673 4.50157 36.8146C3.49417 37.2676 2.30099 36.8188 1.83811 35.8159L0.161881 32.1841C-0.300999 31.1812 0.148817 30.0217 1.16758 29.5949C2.73927 28.9364 4.59173 28.0436 6.20161 26.3198C8.50911 23.849 9 21.0282 9 18V17H3C1.89543 17 0.999997 16.1046 0.999997 15V2ZM25 2C25 0.89543 25.8954 0 27 0H40C41.1046 0 42 0.895431 42 2V18C42 23.7718 39.1575 28.451 36.0484 31.7802C33.6182 34.3824 30.8306 35.7673 28.5016 36.8146C27.4942 37.2676 26.301 36.8188 25.8381 35.8159L24.1619 32.1841C23.699 31.1812 24.1488 30.0217 25.1676 29.5949C26.7393 28.9364 28.5917 28.0436 30.2016 26.3198C32.5091 23.849 33 21.0282 33 18V17H27C25.8954 17 25 16.1046 25 15V2Z"/>
    </symbol>
    <symbol id="arrow_special_plan" width="12" height="12" stroke="#ffb700">
        <circle r="5" cx="6" cy="6" fill="none" stroke-width="1" />
        <line x1="5" y1="4" x2="8" y2="6" stroke-width="1" />
        <line x1="5" y1="8" x2="8" y2="6" stroke-width="1" />
    </symbol>
    <symbol id="file_icon" width="38" height="46" viewBox="0 0 34 42">
        <path fill-rule="evenodd" clip-rule="evenodd" d="M5 4C4.44772 4 4 4.44772 4 5V37C4 37.5523 4.44772 38 5 38H29C29.5523 38 30 37.5523 30 37V18H15.5V4H5ZM19.5 4.29096V14H29.6312L19.5 4.29096ZM0 5C0 2.23858 2.23858 0 5 0H20.8036L34 12.6465V37C34 39.7614 31.7614 42 29 42H5C2.23858 42 0 39.7614 0 37V5ZM31.5 51.5H2.5V47.5H31.5V51.5Z"/>
    </symbol>
    <symbol id="download_icons" viewBox="0 -960 960 960">
        <path d="M260-160q-92 0-156-64T40-380q0-78 48.5-137.5T210-594q25-90 99-148t171-58q119 0 199.5 82.5T760-520q75 8 117.5 62T920-341q0 75-52.5 128T740-160H260Zm0-80h480q42 0 71-29t29-71q0-42-29-71t-71-29h-60v-80q0-83-58.5-141.5T480-720q-63 0-112 34.5T296-597q78 13 131 73.5T480-380h-80q0-58-41-99t-99-41q-58 0-99 41t-41 99q0 58 41 99t99 41Z"/>
    </symbol>
    <symbol id="phone_icon" width="17" height="21" viewBox="0 0 17 21">
        <path d="M15.3343 13.5928L12.9306 13.3184C12.3533 13.2522 11.7855 13.4509 11.3786 13.8578L9.63731 15.5991C6.95914 14.2364 4.76361 12.0503 3.40087 9.36264L5.15162 7.61188C5.55855 7.20495 5.75728 6.63714 5.69104 6.05986L5.41659 3.67505C5.30303 2.71923 4.49864 2 3.53336 2H1.89618C0.826801 2 -0.0627681 2.88957 0.00347639 3.95895C0.505041 12.0408 6.96861 18.495 15.041 18.9965C16.1103 19.0628 16.9999 18.1732 16.9999 17.1038V15.4666C17.0094 14.5108 16.2901 13.7064 15.3343 13.5928Z"/>
    </symbol>
</svg>