<!DOCTYPE svg PUBLIC "-//W3C//DTD SVG 1.1//EN" "http://www.w3.org/Graphics/SVG/1.1/DTD/svg11.dtd">

<svg
    version="1.1"
    xmlns="http://www.w3.org/2000/svg"
    xmlns:xlink="http://www.w3.org/1999/svg"
    xml:space="preserve"
    class="sprite"
>
    <symbol id="arrow" width="18" height="20" viewBox="235 -613 490 290">
        <path fill="#000" d="M480-200 240-440l56-56 184 183 184-183 56 56-240 240Zm0-240L240-680l56-56 184 183 184-183 56 56-240 240Z"/>
    </symbol>
    <symbol id="fav_icon" width="16" height="16" viewBox="0 0 576 512">
        <path fill="#fff" d="M316.9 18C311.6 7 300.4 0 288.1 0s-23.4 7-28.8 18L195 150.3 51.4 171.5c-12 1.8-22 10.2-25.7 21.7s-.7 24.2 7.9 32.7L137.8 329 113.2 474.7c-2 12 3 24.2 12.9 31.3s23 8 33.8 2.3l128.3-68.5 128.3 68.5c10.8 5.7 23.9 4.9 33.8-2.3s14.9-19.3 12.9-31.3L438.5 329 542.7 225.9c8.6-8.5 11.7-21.2 7.9-32.7s-13.7-19.9-25.7-21.7L381.2 150.3 316.9 18z"/>
    </symbol>
    <symbol id="arrow_all_plans" width="12" height="11" stroke="#09f">
        <circle r="5" cx="6" cy="6" fill="none" stroke-width="1" />
        <line x1="5" y1="4" x2="8" y2="6" stroke-width="1" />
        <line x1="5" y1="8" x2="8" y2="6" stroke-width="1" />
    </symbol>
    <symbol id="arrow_special_plan" width="12" height="12" stroke="#ffb700">
        <circle r="5" cx="6" cy="6" fill="none" stroke-width="1" />
        <line x1="5" y1="4" x2="8" y2="6" stroke-width="1" />
        <line x1="5" y1="8" x2="8" y2="6" stroke-width="1" />
    </symbol>
    <symbol id="phone_icon" width="17" height="21">
        <path fill="#09f" d="M19.23 15.26l-2.54-.29c-.61-.07-1.21.14-1.64.57l-1.84 1.84c-2.83-1.44-5.15-3.75-6.59-6.59l1.85-1.85c.43-.43.64-1.03.57-1.64l-.29-2.52c-.12-1.01-.97-1.77-1.99-1.77H5.03c-1.13 0-2.07.94-2 2.07.53 8.54 7.36 15.36 15.89 15.89 1.13.07 2.07-.87 2.07-2v-1.73c.01-1.01-.75-1.86-1.76-1.98z"/>
    </symbol>
</svg>