<svg xmlns="http://www.w3.org/2000/svg" class="sprite"><symbol id="arrow" viewBox="235 -613 490 290"><path d="M480-200L240-440l56-56 184 183 184-183 56 56-240 240zm0-240L240-680l56-56 184 183 184-183 56 56-240 240z"/></symbol><symbol id="fav_icon" viewBox="0 0 576 512"><path fill="#fff" d="M316.9 18c-5.3-11-16.5-18-28.8-18s-23.4 7-28.8 18L195 150.3 51.4 171.5c-12 1.8-22 10.2-25.7 21.7s-.7 24.2 7.9 32.7L137.8 329l-24.6 145.7c-2 12 3 24.2 12.9 31.3s23 8 33.8 2.3l128.3-68.5 128.3 68.5c10.8 5.7 23.9 4.9 33.8-2.3s14.9-19.3 12.9-31.3L438.5 329l104.2-103.1c8.6-8.5 11.7-21.2 7.9-32.7s-13.7-19.9-25.7-21.7l-143.7-21.2L316.9 18z"/></symbol><symbol id="bicycle_icon" viewBox="0 -960 960 960"><path d="M620-740q-33 0-56.5-23.5T540-820q0-33 23.5-56.5T620-900q33 0 56.5 23.5T700-820q0 33-23.5 56.5T620-740zM432-540l88 92v248h-80v-200L312-512q-14-12-19-25t-5-31q0-18 5.5-30.5T312-624l112-112q13-13 27.5-18.5T484-760q18 0 32.5 5.5T544-736l76 76q27 27 63 43.5t81 16.5v80q-63 0-114-22.5T560-604l-32-32-96 96zm-232 60q85 0 142.5 57.5T400-280q0 85-57.5 142.5T200-80q-85 0-142.5-57.5T0-280q0-85 57.5-142.5T200-480zm0 340q57 0 98.5-41.5T340-280q0-57-41.5-98.5T200-420q-57 0-98.5 41.5T60-280q0 57 41.5 98.5T200-140zm560-340q85 0 142.5 57.5T960-280q0 85-57.5 142.5T760-80q-85 0-142.5-57.5T560-280q0-85 57.5-142.5T760-480zm0 340q57 0 98.5-41.5T900-280q0-57-41.5-98.5T760-420q-57 0-98.5 41.5T620-280q0 57 41.5 98.5T760-140z"/></symbol><symbol id="excursion_icon" viewBox="0 0 60 60"><path fill-rule="evenodd" clip-rule="evenodd" d="M22.151 3.637A27.505 27.505 0 0130 2.5c2.723 0 5.358.397 7.849 1.137L36.424 8.43A22.504 22.504 0 0030 7.5c-2.236 0-4.391.325-6.424.93l-1.425-4.793zm-16.34 13.27A27.616 27.616 0 0116.908 5.812l2.383 4.395a22.616 22.616 0 00-9.085 9.085l-4.395-2.383zM43.092 5.812A27.616 27.616 0 0154.19 16.908l-4.395 2.383a22.616 22.616 0 00-9.085-9.085l2.383-4.395zm13.271 16.34A27.504 27.504 0 0157.5 30c0 2.723-.397 5.358-1.137 7.849l-4.793-1.425c.605-2.033.93-4.188.93-6.424 0-2.236-.325-4.391-.93-6.424l4.793-1.425zM2.5 30c0-2.723.397-5.358 1.137-7.849l4.793 1.425A22.504 22.504 0 007.5 30c0 2.236.325 4.391.93 6.424l-4.793 1.425A27.505 27.505 0 012.5 30zm14.408 24.189A27.616 27.616 0 015.81 43.092l4.395-2.383a22.616 22.616 0 009.085 9.085l-2.383 4.395zm37.28-11.097A27.616 27.616 0 0143.093 54.19l-2.383-4.395a22.616 22.616 0 009.085-9.085l4.395 2.383zM30 57.5c-2.723 0-5.358-.397-7.849-1.137l1.425-4.793c2.033.605 4.188.93 6.424.93 2.236 0 4.391-.325 6.424-.93l1.425 4.793A27.504 27.504 0 0130 57.5z"/><path d="M30 38a8 8 0 100-16 8 8 0 000 16z"/></symbol><symbol id="special_order_icon" viewBox="0 0 512 512"><path d="M160 368c26.5 0 48 21.5 48 48v16l72.5-54.4c8.3-6.2 18.4-9.6 28.8-9.6H448c8.8 0 16-7.2 16-16V64c0-8.8-7.2-16-16-16H64c-8.8 0-16 7.2-16 16v288c0 8.8 7.2 16 16 16h96zm48 124l-.2.2-5.1 3.8-17.1 12.8c-4.8 3.6-11.3 4.2-16.8 1.5s-8.8-8.2-8.8-14.3v-80H64c-35.3 0-64-28.7-64-64V64C0 28.7 28.7 0 64 0h384c35.3 0 64 28.7 64 64v288c0 35.3-28.7 64-64 64H309.3L208 492z"/><path d="M256.5 210.538a48.19 48.19 0 0034.096-14.138 48.296 48.296 0 0014.123-34.13 48.299 48.299 0 00-14.123-34.132A48.19 48.19 0 00256.5 114a48.19 48.19 0 00-34.096 14.138 48.303 48.303 0 000 68.262 48.19 48.19 0 0034.096 14.138zm-15.688 29.707c-29.835 0-89.812 22.597-89.812 52.464 0 5.699-.379 20.291 5.28 20.291h200.44c5.693 0 5.28-14.626 5.28-20.291 0-29.867-59.977-52.464-89.812-52.464h-31.376z"/></symbol><symbol id="arrow_all_plans" stroke="#09f" viewBox="0 0 12 12"><circle r="5" cx="6" cy="6" fill="none"/><path d="M5 4l3 2M5 8l3-2"/></symbol><symbol id="quote_icon" viewBox="0 0 42 37"><path fill-rule="evenodd" clip-rule="evenodd" d="M1 2a2 2 0 012-2h13a2 2 0 012 2v16c0 5.772-2.842 10.451-5.952 13.78-2.43 2.602-5.217 3.987-7.546 5.035a2.027 2.027 0 01-2.664-1l-1.676-3.63a1.916 1.916 0 011.006-2.59c1.571-.659 3.424-1.551 5.034-3.275C8.509 23.849 9 21.028 9 18v-1H3a2 2 0 01-2-2V2zm24 0a2 2 0 012-2h13a2 2 0 012 2v16c0 5.772-2.843 10.451-5.952 13.78-2.43 2.602-5.217 3.987-7.546 5.035a2.027 2.027 0 01-2.664-1l-1.676-3.63a1.916 1.916 0 011.006-2.59c1.571-.659 3.424-1.551 5.034-3.275C32.509 23.849 33 21.028 33 18v-1h-6a2 2 0 01-2-2V2z"/></symbol><symbol id="arrow_special_plan" stroke="#ffb700"><circle r="5" cx="6" cy="6" fill="none"/><path d="M5 4l3 2M5 8l3-2"/></symbol><symbol id="file_icon" viewBox="0 0 34 42"><path fill-rule="evenodd" clip-rule="evenodd" d="M5 4a1 1 0 00-1 1v32a1 1 0 001 1h24a1 1 0 001-1V18H15.5V4H5zm14.5.291V14h10.131L19.5 4.291zM0 5a5 5 0 015-5h15.804L34 12.646V37a5 5 0 01-5 5H5a5 5 0 01-5-5V5zm31.5 46.5h-29v-4h29v4z"/></symbol><symbol id="download_icons" viewBox="0 -960 960 960"><path d="M260-160q-92 0-156-64T40-380q0-78 48.5-137.5T210-594q25-90 99-148t171-58q119 0 199.5 82.5T760-520q75 8 117.5 62T920-341q0 75-52.5 128T740-160H260zm0-80h480q42 0 71-29t29-71q0-42-29-71t-71-29h-60v-80q0-83-58.5-141.5T480-720q-63 0-112 34.5T296-597q78 13 131 73.5T480-380h-80q0-58-41-99t-99-41q-58 0-99 41t-41 99q0 58 41 99t99 41z"/></symbol><symbol id="phone_icon" viewBox="0 0 17 21"><path d="M15.334 13.593l-2.403-.275a1.884 1.884 0 00-1.552.54l-1.742 1.741a14.238 14.238 0 01-6.236-6.236l1.75-1.751c.408-.407.606-.975.54-1.552l-.274-2.385A1.894 1.894 0 003.533 2H1.896C.826 2-.063 2.89.003 3.959c.502 8.082 6.966 14.536 15.038 15.038 1.07.066 1.959-.824 1.959-1.893v-1.637c.01-.956-.71-1.76-1.666-1.874z"/></symbol></svg>