<svg xmlns="http://www.w3.org/2000/svg" class="sprite"><symbol id="arrow" viewBox="235 -613 490 290"><path d="M480-200L240-440l56-56 184 183 184-183 56 56-240 240zm0-240L240-680l56-56 184 183 184-183 56 56-240 240z"/></symbol><symbol id="fav_icon" viewBox="0 0 576 512"><path fill="#fff" d="M316.9 18c-5.3-11-16.5-18-28.8-18s-23.4 7-28.8 18L195 150.3 51.4 171.5c-12 1.8-22 10.2-25.7 21.7s-.7 24.2 7.9 32.7L137.8 329l-24.6 145.7c-2 12 3 24.2 12.9 31.3s23 8 33.8 2.3l128.3-68.5 128.3 68.5c10.8 5.7 23.9 4.9 33.8-2.3s14.9-19.3 12.9-31.3L438.5 329l104.2-103.1c8.6-8.5 11.7-21.2 7.9-32.7s-13.7-19.9-25.7-21.7l-143.7-21.2L316.9 18z"/></symbol><symbol id="bicycle_icon" viewBox="0 -960 960 960"><path fill="#ffb700" d="M620-740q-33 0-56.5-23.5T540-820q0-33 23.5-56.5T620-900q33 0 56.5 23.5T700-820q0 33-23.5 56.5T620-740zM432-540l88 92v248h-80v-200L312-512q-14-12-19-25t-5-31q0-18 5.5-30.5T312-624l112-112q13-13 27.5-18.5T484-760q18 0 32.5 5.5T544-736l76 76q27 27 63 43.5t81 16.5v80q-63 0-114-22.5T560-604l-32-32-96 96zm-232 60q85 0 142.5 57.5T400-280q0 85-57.5 142.5T200-80q-85 0-142.5-57.5T0-280q0-85 57.5-142.5T200-480zm0 340q57 0 98.5-41.5T340-280q0-57-41.5-98.5T200-420q-57 0-98.5 41.5T60-280q0 57 41.5 98.5T200-140zm560-340q85 0 142.5 57.5T960-280q0 85-57.5 142.5T760-80q-85 0-142.5-57.5T560-280q0-85 57.5-142.5T760-480zm0 340q57 0 98.5-41.5T900-280q0-57-41.5-98.5T760-420q-57 0-98.5 41.5T620-280q0 57 41.5 98.5T760-140z"/></symbol><symbol id="excursion_icon"><circle r="25" cx="30" cy="30" fill="none" stroke="#ffb700" stroke-width="5" stroke-dasharray="14 5"/><circle r="8" cx="30" cy="30" fill="#ffb700"/></symbol><symbol id="arrow_all_plans" stroke="#09f"><circle r="5" cx="6" cy="6" fill="none"/><path d="M5 4l3 2M5 8l3-2"/></symbol><symbol id="arrow_special_plan" stroke="#ffb700"><circle r="5" cx="6" cy="6" fill="none"/><path d="M5 4l3 2M5 8l3-2"/></symbol><symbol id="phone_icon"><path fill="#09f" d="M19.23 15.26l-2.54-.29a1.99 1.99 0 00-1.64.57l-1.84 1.84a15.045 15.045 0 01-6.59-6.59l1.85-1.85c.43-.43.64-1.03.57-1.64l-.29-2.52a2.001 2.001 0 00-1.99-1.77H5.03c-1.13 0-2.07.94-2 2.07.53 8.54 7.36 15.36 15.89 15.89 1.13.07 2.07-.87 2.07-2v-1.73c.01-1.01-.75-1.86-1.76-1.98z"/></symbol></svg>